<?xml version="1.0" encoding="utf-8"?>
<!-- Generator: Adobe Illustrator 19.0.0, SVG Export Plug-In . SVG Version: 6.00 Build 0)  -->
<svg version="1.1" id="Layer_1" xmlns="http://www.w3.org/2000/svg" xmlns:xlink="http://www.w3.org/1999/xlink" x="0px" y="0px"
	 viewBox="0 0 109.79 109.76" style="enable-background:new 0 0 109.79 109.76;" xml:space="preserve">
<style type="text/css">
	.st0{fill:#3A0CA3;}
	.st1{fill:#544393;}
	.st2{fill:#54C2E9;}
	.st3{fill:#445DA7;}
	.st4{fill:#578DCA;}
	.st5{fill:#FFFFFF;}
</style>
<g id="XMLID_34_">
	<circle id="XMLID_14_" class="st0" cx="54.89" cy="54.89" r="54.89"/>
	<g id="XMLID_18_">
		<path id="XMLID_39_" class="st1" d="M55.62,54.82c-0.49,0.03-0.98,0.09-1.46,0.16c0.43-0.11,0.88-0.17,1.34-0.17
			C55.54,54.81,55.58,54.81,55.62,54.82z"/>
		<circle id="XMLID_17_" class="st2" cx="51.11" cy="65.48" r="5.39"/>
		<circle id="XMLID_20_" class="st3" cx="56.71" cy="43.97" r="5.39"/>
		<circle id="XMLID_22_" class="st4" cx="57.66" cy="44.4" r="5.39"/>
		<circle id="XMLID_24_" class="st3" cx="53.25" cy="66.61" r="5.39"/>
		<circle id="XMLID_23_" class="st4" cx="52.29" cy="66.17" r="5.39"/>
		<circle id="XMLID_21_" class="st2" cx="51.29" cy="65.61" r="5.39"/>
		<circle id="XMLID_16_" class="st2" cx="58.66" cy="44.97" r="5.39"/>
		<path id="XMLID_45_" class="st5" d="M62.42,23.87c0,2.8-2.13,5.11-4.85,5.38c-5.62,0.69-10.35,4.24-12.7,9.15
			c-1.01,2.12-1.58,4.5-1.58,7.01c0,1.57,0.22,3.08,0.64,4.51c1.25,4.37,4.28,7.98,8.26,10c0.19,0.1,0.39,0.2,0.59,0.29
			c1.65,0.92,2.77,2.69,2.77,4.72c0,2.98-2.41,5.4-5.39,5.4c-0.7,0-1.37-0.13-1.99-0.38c-0.11-0.04-0.22-0.09-0.34-0.15
			s-0.23-0.11-0.35-0.18c-5.12-2.55-9.32-6.69-11.94-11.77c-1.94-3.72-3.03-7.95-3.03-12.44c0-0.32,0.01-0.64,0.03-0.96
			c0.45-13.19,10.34-23.98,23.13-25.82c0.48-0.07,0.97-0.13,1.46-0.16C60.06,18.53,62.42,20.93,62.42,23.87z"/>
		<path id="XMLID_40_" class="st5" d="M77.27,64.94c0,0.32-0.01,0.64-0.03,0.95c-0.4,12.08-8.74,22.15-19.97,25.18
			c-0.02,0-0.03,0.01-0.04,0.01c-0.15,0.05-0.32,0.09-0.48,0.12c-0.35,0.07-0.72,0.11-1.09,0.11c-2.98,0-5.39-2.41-5.39-5.39
			c0-2.5,1.7-4.6,4.01-5.21c4.7-1.21,8.58-4.47,10.64-8.77c1-2.12,1.57-4.5,1.57-7c0-1.57-0.22-3.08-0.64-4.51
			c-1.28-4.49-4.44-8.17-8.57-10.17h-0.01c-1.68-0.92-2.81-2.7-2.81-4.74c0-2.98,2.41-5.39,5.39-5.39c0.74,0,1.44,0.15,2.08,0.41
			c0.13,0.06,0.25,0.13,0.38,0.19c0.05,0.01,0.1,0.04,0.15,0.07c5.05,2.56,9.18,6.67,11.78,11.7
			C76.18,56.23,77.27,60.46,77.27,64.94z"/>
	</g>
</g>
</svg>
